<?xml version="1.0" encoding="UTF-8" standalone="no"?><!DOCTYPE svg PUBLIC "-//W3C//DTD SVG 1.1//EN" "http://www.w3.org/Graphics/SVG/1.1/DTD/svg11.dtd"><svg width="100%" height="100%" viewBox="0 0 256 256" version="1.1" xmlns="http://www.w3.org/2000/svg" xmlns:xlink="http://www.w3.org/1999/xlink" xml:space="preserve" xmlns:serif="http://www.serif.com/" style="fill-rule:evenodd;clip-rule:evenodd;stroke-linejoin:round;stroke-miterlimit:2;"><g id="Background"><path id="Path-1" serif:id="Path 1" d="M24.92,133.664l0,-23.788l-24.92,0l0,-12.46l37.381,0l0,24.92l11.327,0l0,-24.92l48.708,0l0,-23.788l12.46,0l0,11.327l12.46,0l0,12.46l11.327,0l0,-12.46l12.46,0l0,-36.248l12.46,0l0,48.708l-12.46,0l0,12.46l-12.46,0l0,12.46l-11.327,0l0,-12.46l-24.92,0l0,12.46l-12.46,0l0,-12.46l-23.788,0l0,12.46l23.788,0l0,11.327l-11.327,0l0,12.46l11.327,0l0,12.46l-84.956,0l0,-12.46l12.46,0l0,-12.46l12.46,0l0,12.46l12.46,0l0,-12.46l-12.46,0Zm97.416,-48.708l0,-11.327l11.327,0l0,11.327l-11.327,0Zm0,37.381l0,11.327l-12.46,0l0,-11.327l12.46,0Zm0,11.327l11.327,0l0,24.92l-11.327,0l0,12.46l-12.46,0l0,11.327l12.46,0l0,12.46l-12.46,0l0,12.46l-12.46,0l0,-73.628l12.46,0l0,12.46l12.46,0l0,-12.46Zm11.327,24.92l12.46,0l0,23.788l24.92,0l0,12.46l-24.92,0l0,12.46l-12.46,0l0,36.248l-23.788,0l0,12.46l-12.46,0l0,-37.381l12.46,0l0,-11.327l12.46,0l0,-12.46l11.327,0l0,-12.46l-11.327,0l0,-11.327l11.327,0l0,-12.46Zm12.46,0l0,-12.46l12.46,0l0,12.46l-12.46,0Zm12.46,-12.46l0,-12.46l-12.46,0l0,-11.327l97.416,0l0,-12.46l12.46,0l0,23.788l-12.46,0l0,12.46l-12.46,0l0,-12.46l-12.46,0l0,12.46l12.46,0l0,12.46l-23.788,0l0,12.46l-12.46,0l0,-12.46l-12.46,0l0,-24.92l-11.327,0l0,12.46l-12.46,0Zm72.496,48.708l0,12.46l-23.788,0l0,23.788l23.788,0l0,12.46l12.46,0l0,-24.92l12.46,0l0,37.381l-84.956,0l0,-24.92l23.788,0l0,-23.788l-12.46,0l0,11.327l-11.327,0l0,-23.788l11.327,0l0,-12.46l24.92,0l0,12.46l23.788,0Zm-72.496,-97.416l23.788,0l0,12.46l-23.788,0l0,-12.46Zm-12.46,-48.708l-12.46,0l0,-23.788l-11.327,0l0,23.788l-12.46,0l0,-11.327l-12.46,0l0,-12.46l12.46,0l0,-24.92l12.46,0l0,12.46l11.327,0l0,-12.46l24.92,0l0,12.46l-12.46,0l0,12.46l12.46,0l0,12.46l-12.46,0l0,11.327Zm-12.46,0l0,12.46l-11.327,0l0,-12.46l11.327,0Zm-132.531,-47.575l83.823,0l0,83.823l-83.823,-0l0,-83.823Zm11.327,72.496l61.168,0l0,-61.168l-61.168,0l0,61.168Zm158.584,-72.496l83.823,0l0,83.823l-83.823,-0l0,-83.823Zm11.327,72.496l61.168,0l0,-61.168l-61.168,0l0,61.168Zm36.248,23.788l12.46,0l0,12.46l-12.46,0l0,-12.46Zm-217.487,73.628l83.823,0l0,83.823l-83.823,0l0,-83.823Zm11.327,72.496l61.168,0l0,-61.168l-61.168,0l0,61.168Zm133.664,-24.92l12.46,0l0,12.46l-12.46,0l0,-12.46Zm0,24.92l12.46,0l0,12.46l-12.46,0l0,-12.46Z"/><path id="Path-3" serif:id="Path 3" d="M24.92,24.92l0,36.248l36.248,0l0,-36.248l-36.248,-0Zm169.912,0l0,36.248l36.248,0l0,-36.248l-36.248,-0Zm-36.248,133.664l0,12.46l12.46,0l0,11.327l11.327,0l0,-11.327l-11.327,0l0,-12.46l-12.46,0Zm48.708,12.46l0,11.327l11.327,0l0,-11.327l-11.327,0Zm-182.372,23.788l0,36.248l36.248,0l0,-36.248l-36.248,0Z" style="fill-rule:nonzero;"/></g></svg>